<svg xmlns="http://www.w3.org/2000/svg" width="18.083" height="18.083" viewBox="0 0 18.083 18.083">
  <path id="Icon_metro-target" data-name="Icon metro-target" d="M20.654,9.839H18.872A7.364,7.364,0,0,0,12.743,3.71V1.928h-2.26V3.71A7.364,7.364,0,0,0,4.353,9.839H2.571V12.1H4.353a7.364,7.364,0,0,0,6.129,6.129v1.782h2.26V18.229A7.364,7.364,0,0,0,18.872,12.1h1.782V9.839Zm-4.082,0H14.81a3.4,3.4,0,0,0-2.067-2.067V6.01A5.1,5.1,0,0,1,16.571,9.839ZM11.612,12.1a1.13,1.13,0,1,1,1.13-1.13A1.13,1.13,0,0,1,11.612,12.1ZM10.482,6.01V7.772A3.4,3.4,0,0,0,8.415,9.839H6.653A5.1,5.1,0,0,1,10.482,6.01ZM6.653,12.1H8.415a3.4,3.4,0,0,0,2.067,2.067v1.762A5.1,5.1,0,0,1,6.653,12.1Zm6.089,3.829V14.167A3.4,3.4,0,0,0,14.81,12.1h1.762A5.1,5.1,0,0,1,12.742,15.929Z" transform="translate(-2.571 -1.928)"/>
</svg>
