<svg id="facebook-logo" xmlns="http://www.w3.org/2000/svg" width="20.236" height="37.43" viewBox="0 0 20.236 37.43">
  <path id="Path_156" data-name="Path 156" d="M41.551.008,36.7,0c-5.453,0-8.977,3.616-8.977,9.212v4.247H22.84a.763.763,0,0,0-.763.764v6.154a.763.763,0,0,0,.763.763h4.88V36.667a.763.763,0,0,0,.763.763h6.367a.763.763,0,0,0,.763-.763V21.139h5.706a.763.763,0,0,0,.763-.763l0-6.154a.764.764,0,0,0-.764-.764H35.614v-3.6c0-1.73.412-2.609,2.667-2.609h3.27a.763.763,0,0,0,.763-.763V.771A.763.763,0,0,0,41.551.008Z" transform="translate(-22.077)" fill="#343434"/>
</svg>
