<svg xmlns="http://www.w3.org/2000/svg" width="18.321" height="18.321" viewBox="0 0 18.321 18.321">
  <path id="Icon_awesome-rss" data-name="Icon awesome-rss" d="M5.238,17.952a2.619,2.619,0,1,1-2.619-2.619A2.619,2.619,0,0,1,5.238,17.952Zm7.184,1.932A12.435,12.435,0,0,0,.687,8.15.654.654,0,0,0,0,8.8v1.966a.655.655,0,0,0,.609.655,9.164,9.164,0,0,1,8.538,8.538.655.655,0,0,0,.655.609h1.966a.654.654,0,0,0,.654-.687Zm5.9.012A18.334,18.334,0,0,0,.675,2.25.654.654,0,0,0,0,2.9V4.871a.656.656,0,0,0,.632.654A15.052,15.052,0,0,1,15.046,19.939a.656.656,0,0,0,.654.632h1.966a.654.654,0,0,0,.655-.675Z" transform="translate(0 -2.25)" fill="#83b2aa"/>
</svg>
