<svg xmlns="http://www.w3.org/2000/svg" width="19.45" height="15.128" viewBox="0 0 19.45 15.128">
  <path id="Icon_awesome-comments" data-name="Icon awesome-comments" d="M14.047,7.653c0-2.985-3.144-5.4-7.023-5.4S0,4.668,0,7.653a4.581,4.581,0,0,0,1.283,3.107A7.6,7.6,0,0,1,.074,12.6a.268.268,0,0,0-.051.294.264.264,0,0,0,.246.162,5.945,5.945,0,0,0,3-.844,8.592,8.592,0,0,0,3.758.844C10.9,13.055,14.047,10.638,14.047,7.653Zm4.12,7.429a4.575,4.575,0,0,0,1.283-3.107c0-2.259-1.807-4.194-4.366-5a5.018,5.018,0,0,1,.044.679c0,3.576-3.637,6.483-8.1,6.483a10.124,10.124,0,0,1-1.07-.064,7.3,7.3,0,0,0,6.473,3.306,8.545,8.545,0,0,0,3.758-.844,5.945,5.945,0,0,0,3,.844.266.266,0,0,0,.246-.162.271.271,0,0,0-.051-.294A7.519,7.519,0,0,1,18.167,15.081Z" transform="translate(0 -2.25)"/>
</svg>
