<svg id="Icon_ionic-ios-mail" data-name="Icon ionic-ios-mail" xmlns="http://www.w3.org/2000/svg" width="24.586" height="17.021" viewBox="0 0 24.586 17.021">
  <path id="Path_1438" data-name="Path 1438" d="M27.76,10.35,21.4,16.828a.114.114,0,0,0,0,.165l4.45,4.74a.767.767,0,0,1,0,1.087.77.77,0,0,1-1.087,0L20.331,18.1a.121.121,0,0,0-.171,0l-1.082,1.1a4.759,4.759,0,0,1-3.392,1.43,4.854,4.854,0,0,1-3.463-1.472L11.182,18.1a.121.121,0,0,0-.171,0L6.578,22.82a.77.77,0,0,1-1.087,0,.767.767,0,0,1,0-1.087l4.45-4.74a.126.126,0,0,0,0-.165L3.576,10.35a.116.116,0,0,0-.2.083V23.394a1.9,1.9,0,0,0,1.891,1.891h20.8a1.9,1.9,0,0,0,1.891-1.891V10.433A.118.118,0,0,0,27.76,10.35Z" transform="translate(-3.375 -8.264)" fill="#83b2aa"/>
  <path id="Path_1439" data-name="Path 1439" d="M15.8,18.7a3.213,3.213,0,0,0,2.311-.969l9.273-9.438a1.857,1.857,0,0,0-1.17-.414H5.4a1.845,1.845,0,0,0-1.17.414L13.5,17.727A3.213,3.213,0,0,0,15.8,18.7Z" transform="translate(-3.511 -7.875)" fill="#83b2aa"/>
</svg>
