<svg xmlns="http://www.w3.org/2000/svg" width="28.776" height="18.701" viewBox="0 0 28.776 18.701">
  <g id="Icon_ionic-ios-people" data-name="Icon ionic-ios-people" transform="translate(-2.215 -7.748)">
    <path id="Path_5123" data-name="Path 5123" d="M23.1,22.136c-.718-.256-1.891-.269-2.41-.468a3.4,3.4,0,0,1-1.115-.519,6.891,6.891,0,0,1-.186-1.827,2.951,2.951,0,0,0,.634-.9,9.972,9.972,0,0,0,.308-1.762s.423.179.59-.667c.141-.731.41-1.115.34-1.653s-.372-.41-.372-.41a4.8,4.8,0,0,0,.372-2.4,3.835,3.835,0,0,0-4.14-3.788,3.848,3.848,0,0,0-4.147,3.788,4.87,4.87,0,0,0,.365,2.4s-.3-.128-.372.41.192.923.34,1.653c.167.852.59.667.59.667a10.068,10.068,0,0,0,.308,1.762,2.951,2.951,0,0,0,.634.9,6.891,6.891,0,0,1-.186,1.827,3.276,3.276,0,0,1-1.115.513c-.513.2-1.686.224-2.41.481a4.523,4.523,0,0,0-2.935,4.307H26.027A4.514,4.514,0,0,0,23.1,22.136Z" transform="translate(-0.529)"/>
    <path id="Path_5124" data-name="Path 5124" d="M9.168,19.321a4.351,4.351,0,0,0,2.141-.6c-.993-1.506-.455-3.262-.66-4.9a2.7,2.7,0,0,0-2.993-2.615H7.63a2.712,2.712,0,0,0-2.967,2.615c-.205,1.634.365,3.589-.654,4.9a4.026,4.026,0,0,0,2.147.532h0a3.246,3.246,0,0,1-.064,1.077,1.618,1.618,0,0,1-.769.352,14.87,14.87,0,0,0-1.66.461,2.7,2.7,0,0,0-1.448,2.384H7.361a4.6,4.6,0,0,1,2.051-1.91,4.3,4.3,0,0,1,1.583-.333s.244-.385-.558-.532a5.463,5.463,0,0,1-1.23-.429C9.085,20.187,9.168,19.321,9.168,19.321Z" transform="translate(0 -0.306)"/>
    <path id="Path_5125" data-name="Path 5125" d="M25.948,19.321a4.351,4.351,0,0,1-2.141-.6c.993-1.506.455-3.262.66-4.9a2.7,2.7,0,0,1,2.993-2.615h.026a2.712,2.712,0,0,1,2.967,2.615c.205,1.634-.365,3.589.654,4.9a4.026,4.026,0,0,1-2.147.532h0a3.246,3.246,0,0,0,.064,1.077,1.618,1.618,0,0,0,.769.352,14.87,14.87,0,0,1,1.66.461A2.7,2.7,0,0,1,32.9,23.532H27.756a4.6,4.6,0,0,0-2.051-1.91,4.3,4.3,0,0,0-1.583-.333s-.244-.385.558-.532a5.463,5.463,0,0,0,1.23-.429C26.032,20.187,25.948,19.321,25.948,19.321Z" transform="translate(-1.911 -0.306)"/>
  </g>
</svg>
