<svg xmlns="http://www.w3.org/2000/svg" width="16.202" height="15.189" viewBox="0 0 16.202 15.189">
  <path id="Icon_metro-cart" data-name="Icon metro-cart" d="M8.646,17.526a1.519,1.519,0,1,1-1.519-1.519A1.519,1.519,0,0,1,8.646,17.526Zm10.126,0a1.519,1.519,0,1,1-1.519-1.519A1.519,1.519,0,0,1,18.773,17.526Zm0-6.582V4.869H6.621A1.013,1.013,0,0,0,5.609,3.856H2.571V4.869H4.6l.761,6.52a2.025,2.025,0,0,0,1.265,3.607H18.773V13.982H6.621A1.013,1.013,0,0,1,5.609,12.97s0-.007,0-.01Z" transform="translate(-2.571 -3.856)" fill="#fff"/>
</svg>
