<svg id="instagram" xmlns="http://www.w3.org/2000/svg" width="36.722" height="36.728" viewBox="0 0 36.722 36.728">
  <path id="Path_155" data-name="Path 155" d="M53.463,22.506H28.287a5.776,5.776,0,0,0-5.773,5.779V53.46a5.775,5.775,0,0,0,5.773,5.773H53.463a5.775,5.775,0,0,0,5.773-5.773V28.285A5.776,5.776,0,0,0,53.463,22.506Zm-3.9,4.248,4.614-.011h.011a.8.8,0,0,1,.8.793v4.631a.8.8,0,0,1-.8.8l-4.609.016a.794.794,0,0,1-.8-.793l-.016-4.631A.8.8,0,0,1,49.559,26.754ZM35.247,37.715a7.207,7.207,0,0,1,.388-.612A6.448,6.448,0,1,1,34.41,40.87,6.373,6.373,0,0,1,35.247,37.715ZM55.661,52.137a3.525,3.525,0,0,1-3.521,3.521H29.61a3.525,3.525,0,0,1-3.521-3.521V37.1h5.483a9.591,9.591,0,0,0-.355,1.033,9.827,9.827,0,0,0-.383,2.734,10.04,10.04,0,1,0,19.7-2.734c-.1-.35-.219-.7-.355-1.033h5.483Z" transform="translate(-22.514 -22.506)" fill="#343434"/>
</svg>
