<svg xmlns="http://www.w3.org/2000/svg" width="19.236" height="19.067" viewBox="0 0 19.236 19.067">
  <path id="Icon_weather-stars" data-name="Icon weather-stars" d="M6.444,17.011a2.441,2.441,0,0,0,2.327-2.427,2.423,2.423,0,0,0,2.317,2.427,2.423,2.423,0,0,0-2.317,2.427,2.307,2.307,0,0,0-.679-1.678A2.353,2.353,0,0,0,6.444,17.011ZM8.771,9.82a4.59,4.59,0,0,0,3.206-1.468A4.572,4.572,0,0,0,13.3,5.076a4.572,4.572,0,0,0,1.318,3.276A4.635,4.635,0,0,0,17.83,9.82a4.629,4.629,0,0,0-2.287.709,4.8,4.8,0,0,0-1.648,1.728,4.7,4.7,0,0,0-.6,2.327A4.6,4.6,0,0,0,11.977,11.3,4.56,4.56,0,0,0,8.771,9.82Zm3.316,10.757a3.568,3.568,0,0,0,3.406-3.566,3.568,3.568,0,0,0,3.4,3.566,3.568,3.568,0,0,0-3.4,3.566,3.44,3.44,0,0,0-.989-2.467A3.5,3.5,0,0,0,12.087,20.577Zm6.8-4.734a3.551,3.551,0,0,0,3.386-3.576,3.568,3.568,0,0,0,3.406,3.566A3.568,3.568,0,0,0,22.275,19.4a3.533,3.533,0,0,0-3.386-3.556Z" transform="translate(-6.444 -5.076)"/>
</svg>
