<svg xmlns="http://www.w3.org/2000/svg" width="74.504" height="23.619" viewBox="0 0 74.504 23.619">
  <g id="Group_3877" data-name="Group 3877" transform="translate(-1557.497 -430)">
    <path id="Icon_ionic-ios-arrow-back" data-name="Icon ionic-ios-arrow-back" d="M15.321,18l8.937-8.93a1.688,1.688,0,0,0-2.391-2.384L11.742,16.8a1.685,1.685,0,0,0-.049,2.327L21.86,29.32a1.688,1.688,0,0,0,2.391-2.384Z" transform="translate(1643.251 459.813) rotate(180)"/>
    <path id="Icon_ionic-ios-arrow-back-2" data-name="Icon ionic-ios-arrow-back" d="M15.321,18l8.937-8.93a1.688,1.688,0,0,0-2.391-2.384L11.742,16.8a1.685,1.685,0,0,0-.049,2.327L21.86,29.32a1.688,1.688,0,0,0,2.391-2.384Z" transform="translate(1546.246 423.807)" opacity="0.5"/>
  </g>
</svg>
