<svg id="twitter" xmlns="http://www.w3.org/2000/svg" width="43.84" height="35.628" viewBox="0 0 43.84 35.628">
  <g id="Group_29" data-name="Group 29">
    <path id="Path_153" data-name="Path 153" d="M68.943,38.246a17.945,17.945,0,0,1-5.166,1.415,9.019,9.019,0,0,0,3.956-4.975,18.005,18.005,0,0,1-5.712,2.182,9,9,0,0,0-15.327,8.2,25.532,25.532,0,0,1-18.539-9.4,9,9,0,0,0,2.783,12.009,8.931,8.931,0,0,1-4.074-1.126c0,.038,0,.076,0,.114a9,9,0,0,0,7.215,8.819,9.029,9.029,0,0,1-4.061.156,9,9,0,0,0,8.4,6.246A18.156,18.156,0,0,1,25.1,65.614a25.441,25.441,0,0,0,13.786,4.041c16.544,0,25.591-13.705,25.591-25.592,0-.39-.009-.778-.026-1.163a18.239,18.239,0,0,0,4.489-4.655Z" transform="translate(-25.103 -34.028)" fill="#343434"/>
  </g>
</svg>
