<?xml version="1.0" encoding="utf-8"?>
<!-- Generator: Adobe Illustrator 15.1.0, SVG Export Plug-In . SVG Version: 6.00 Build 0)  -->
<!DOCTYPE svg PUBLIC "-//W3C//DTD SVG 1.1//EN" "http://www.w3.org/Graphics/SVG/1.1/DTD/svg11.dtd">
<svg version="1.1" id="Ebene_1" xmlns="http://www.w3.org/2000/svg" xmlns:xlink="http://www.w3.org/1999/xlink" x="0px" y="0px"
	 width="163px" height="176px" viewBox="0 0 163 176" enable-background="new 0 0 163 176" xml:space="preserve">
<g>
	<g>
		<g>
			<g>
				<path fill="#76B4AA" d="M136.49,80.005c-3.229-36.831-34.195-64.199-69.159-61.13c-4.368,0.383-8.59,1.222-12.63,2.472
					C50.208,15.972,52.56,0,52.56,0c-0.263,0.193-0.523,0.395-0.774,0.593c-10.294,8.162-10.75,19.412-10.75,19.412
					c-7.374-3.555-9.529-16.646-9.529-16.646c-7.693,11.939-7.077,28.529-7.077,28.529c-4.737-2.275-9.228-11.294-9.228-11.294
					c-1.319,11.958,2.343,21.747,5.147,27.246C13.092,59.169,9.107,72.935,9.657,87.547c3.973-7.009,6.684-10.854,16.509-19.586
					c10.918-9.699,24.761-15.923,24.761-15.923l6.688,14.707c0,0-4.69,1.556-20.295,13.348c-8.482,6.41-15.104,15.881-19.385,23.194
					c2.259,1.636,3.092,3.79,3.092,3.79c-1.291-1.084-2.604-1.849-3.906-2.377c-2.708-1.104-5.366-1.157-7.673-0.761
					c-1.78,0.305-2.54,0.47-3.336,0.867c-0.797,0.397-1.958,1.062-2.289,1.354c-4.993,4.43-5.165,13.801-0.098,16.552
					c4.737,2.571,11.903,2.438,15.604-2.084c12.349,20.785,35.032,33.785,59.711,31.619
					C114.002,149.182,139.727,116.834,136.49,80.005z"/>
				<path fill="#342D2B" d="M50.927,52.038c0,0-13.843,6.224-24.761,15.923C16.341,76.692,13.63,80.538,9.657,87.547
					c-0.976,1.723-2.026,3.633-3.28,5.855l2.462,8.453c0.981-0.217,1.892-0.338,2.732-0.367c2.833-0.106,4.897,0.736,6.362,1.799
					c4.281-7.313,10.903-16.784,19.385-23.194c15.605-11.792,20.295-13.348,20.295-13.348L50.927,52.038z"/>
			</g>
			
				<linearGradient id="SVGID_1_" gradientUnits="userSpaceOnUse" x1="-384.6724" y1="1062.4883" x2="-281.3193" y2="1062.4883" gradientTransform="matrix(1 0 0 1 438.0195 -1018.5195)">
				<stop  offset="0.3557" style="stop-color:#4A403D"/>
				<stop  offset="0.9154" style="stop-color:#342D2B"/>
			</linearGradient>
			<path fill="url(#SVGID_1_)" d="M69.708,7.193c0,0,24.282-0.618,48.783,7.064c24.501,7.682,28.089,11.153,28.089,11.153
				l10.12,36.302l-20.146,19.043c0,0-4.986-3.724-29.902-7.463c-24.914-3.739-39.288,0.551-39.288,0.551L53.347,43.424L69.708,7.193
				z"/>
			<path fill="#342D2B" d="M53.347,43.424c0,0,13.642,30.454,14.019,30.419c0.374-0.03,19.922-25.829,19.922-25.829L69.766,7.816
				L53.347,43.424z"/>
			<path fill="#342D2B" d="M136.555,80.755l19.686-18.498c0,0-19.467-6.915-34.643-10.231c-15.177-3.323-34.311-4.012-34.311-4.012
				L67.366,73.843c0,0,22.856-3.897,44.547,0.501C133.605,78.745,136.555,80.755,136.555,80.755z"/>
			<path fill="#F0F0F0" d="M90.628,95.672c0,0,7.649,5.719,21.435,1.902c0,0-0.976,2.268-2.959,3.619c0,0-2.027,15.226-8.188,15.933
				C94.762,117.833,92.26,109.482,90.628,95.672z"/>
			<path fill="#342D2B" d="M49.696,152.557c0,0,6.673,23.102,7.063,23.299c0.392,0.197,20.719-11.017,21.128-10.955
				c0.41,0.061,19.5,7.625,19.5,7.625l5.858-22.039l-25.738,12.261L49.696,152.557z"/>
			<path fill="#76B4AA" d="M105.456,74.954c0.472-0.376,5.282-6.851,9.056-6.007c3.772,0.846,0.549,8.191,0.549,8.191
				L105.456,74.954z"/>
		</g>
	</g>
</g>
<g>
	<polygon fill="#FF586B" points="143.225,132.124 163,121.834 163,97.5 	"/>
</g>
</svg>
