<svg xmlns="http://www.w3.org/2000/svg" xmlns:xlink="http://www.w3.org/1999/xlink" width="178.171" height="58.815" viewBox="0 0 178.171 58.815">
  <defs>
    <linearGradient id="linear-gradient" x1="-4.238" y1="14.344" x2="-3.238" y2="14.344" gradientUnits="objectBoundingBox">
      <stop offset="0.356" stop-color="#4a403d"/>
      <stop offset="0.915" stop-color="#342d2b"/>
    </linearGradient>
  </defs>
  <g id="Group_4110" data-name="Group 4110" transform="translate(-352 -58.363)">
    <g id="VR_Nerds_Logo" data-name="VR Nerds Logo" transform="translate(352 58.363)">
      <g id="Group_4101" data-name="Group 4101" transform="translate(0)">
        <g id="Group_4100" data-name="Group 4100">
          <g id="Group_4099" data-name="Group 4099">
            <g id="Group_4098" data-name="Group 4098">
              <path id="Path_5129" data-name="Path 5129" d="M45.649,26.757C44.569,14.439,34.213,5.286,22.519,6.313a20.261,20.261,0,0,0-4.224.827C16.792,5.342,17.579,0,17.579,0c-.088.065-.175.132-.259.2a9.481,9.481,0,0,0-3.6,6.492C11.259,5.5,10.538,1.123,10.538,1.123c-2.573,3.993-2.367,9.541-2.367,9.541C6.587,9.9,5.085,6.888,5.085,6.888A16.3,16.3,0,0,0,6.806,16,22.98,22.98,0,0,0,3.23,29.28c1.329-2.344,2.235-3.63,5.521-6.55A37.283,37.283,0,0,1,17.033,17.4l2.237,4.919s-1.569.52-6.788,4.464A26.963,26.963,0,0,0,6,34.544a3.151,3.151,0,0,1,1.034,1.268,4.869,4.869,0,0,0-1.306-.795,4.64,4.64,0,0,0-2.566-.255,3.8,3.8,0,0,0-1.116.29,5.289,5.289,0,0,0-.766.453c-1.67,1.482-1.727,4.616-.033,5.536,1.584.86,3.981.815,5.219-.7a21.168,21.168,0,0,0,19.97,10.575C38.128,49.894,46.732,39.075,45.649,26.757Z" transform="translate(-0.001)" fill="#76b4aa"/>
              <path id="Path_5130" data-name="Path 5130" d="M21.277,52.038A37.283,37.283,0,0,0,13,57.363c-3.286,2.92-4.193,4.206-5.521,6.55-.326.576-.678,1.215-1.1,1.958L7.2,68.7a5.057,5.057,0,0,1,.914-.123,3.309,3.309,0,0,1,2.128.6,26.963,26.963,0,0,1,6.483-7.757c5.219-3.944,6.788-4.464,6.788-4.464Z" transform="translate(-4.245 -34.634)" fill="#342d2b"/>
            </g>
            <path id="Path_5131" data-name="Path 5131" d="M58.819,7.185A56.7,56.7,0,0,1,75.134,9.548c8.194,2.569,9.394,3.73,9.394,3.73l3.385,12.141-6.738,6.369s-1.668-1.245-10-2.5-13.14.184-13.14.184L53.347,19.3Z" transform="translate(-35.505 -4.779)" fill="url(#linear-gradient)"/>
            <path id="Path_5132" data-name="Path 5132" d="M53.347,19.725S57.91,29.91,58.036,29.9,64.7,21.26,64.7,21.26L58.838,7.816Z" transform="translate(-35.505 -5.202)" fill="#342d2b"/>
            <path id="Path_5133" data-name="Path 5133" d="M90.506,58.964l6.584-6.187A116.717,116.717,0,0,0,85.5,49.356a76.882,76.882,0,0,0-11.475-1.342l-6.663,8.638a46.472,46.472,0,0,1,14.9.168C89.519,58.292,90.506,58.964,90.506,58.964Z" transform="translate(-44.836 -31.956)" fill="#342d2b"/>
            <path id="Path_5134" data-name="Path 5134" d="M90.628,95.672s2.558,1.913,7.169.636a3.15,3.15,0,0,1-.99,1.21s-.678,5.092-2.738,5.329S91.174,100.291,90.628,95.672Z" transform="translate(-60.318 -63.675)" fill="#f0f0f0"/>
            <path id="Path_5135" data-name="Path 5135" d="M49.7,151.179s2.232,7.726,2.362,7.792,6.929-3.685,7.066-3.664,6.522,2.55,6.522,2.55l1.959-7.371L59,154.588Z" transform="translate(-33.076 -100.157)" fill="#342d2b"/>
            <path id="Path_5136" data-name="Path 5136" d="M105.456,70.906c.158-.126,1.767-2.291,3.029-2.009s.184,2.739.184,2.739Z" transform="translate(-70.187 -45.837)" fill="#76b4aa"/>
          </g>
        </g>
      </g>
      <g id="Group_4102" data-name="Group 4102" transform="translate(47.901 32.609)">
        <path id="Path_5137" data-name="Path 5137" d="M143.225,109.08l6.614-3.441V97.5Z" transform="translate(-143.225 -97.5)" fill="#ff586b"/>
      </g>
    </g>
    <g id="VRN_LogoFuerWebsite_2" transform="translate(406.515 61.407)">
      <rect id="Rectangle_3574" data-name="Rectangle 3574" width="107.083" height="31.254" transform="translate(9.768 1.767)" fill="#fff" stroke="#1d1d1b" stroke-miterlimit="10" stroke-width="1"/>
      <g id="Group_4108" data-name="Group 4108" transform="translate(0.002)">
        <path id="Path_5138" data-name="Path 5138" d="M156.087,14.3c.008,0,.017,0,.024,0s.021,0,.03,0Z" transform="translate(-102.771 -9.415)" fill="#ff586b"/>
        <path id="Path_5139" data-name="Path 5139" d="M167.3,15.776" transform="translate(-110.156 -10.387)" fill="#ff586b"/>
        <path id="Path_5140" data-name="Path 5140" d="M220.334,45.313l-1.4,6.222,2.526-1.071-.767-3.877a.415.415,0,0,1,0-.282.352.352,0,0,1,.214-.192Z" transform="translate(-144.151 -29.834)" fill="#ff586b"/>
        <g id="Group_4107" data-name="Group 4107">
          <g id="Group_4103" data-name="Group 4103" transform="translate(34.246 11.697)">
            <path id="Path_5141" data-name="Path 5141" d="M102.921,34.243H101.65a.542.542,0,0,0-.5.4l-.879,3.788a.312.312,0,0,0,.317.4h.861a3.645,3.645,0,0,0,.8-.109s2.089-.578,2.468-2.183C105.073,34.93,104.363,34.243,102.921,34.243Z" transform="translate(-100.259 -34.243)" fill="#ff586b"/>
          </g>
          <g id="Group_4104" data-name="Group 4104" transform="translate(87.341 11.902)">
            <path id="Path_5142" data-name="Path 5142" d="M259.254,34.844h-.727a.54.54,0,0,0-.5.4L255.7,45.4a.312.312,0,0,0,.318.4h.318c1.879.055,3.437-.826,4-3.3l.9-3.956C261.645,36.454,261.859,34.922,259.254,34.844Z" transform="translate(-255.693 -34.844)" fill="#ff586b"/>
          </g>
          <g id="Group_4105" data-name="Group 4105" transform="translate(76.092 11.697)">
            <path id="Path_5143" data-name="Path 5143" d="M225.423,34.243h-1.271a.541.541,0,0,0-.5.4l-.879,3.788a.312.312,0,0,0,.317.4h.861a3.652,3.652,0,0,0,.8-.109s2.089-.578,2.468-2.183C227.575,34.93,226.865,34.243,225.423,34.243Z" transform="translate(-222.762 -34.243)" fill="#ff586b"/>
          </g>
          <g id="Group_4106" data-name="Group 4106">
            <path id="Path_5144" data-name="Path 5144" d="M.006,0V34.051H123.66V0ZM22.838,25.655H19.943c-.225,0-.416-.184-.453-.935L18.928,8.989c.021.3.169-.408.395-.408h2.4a.424.424,0,0,1,.42.408l.315,11.536a1.836,1.836,0,0,0,.034.408,2.108,2.108,0,0,0,.2-.369L28.013,9.475a.712.712,0,0,1,.586-.369h2.375a.235.235,0,0,1,.228.367L23.428,25.288A.72.72,0,0,1,22.838,25.655Zm15.564-7.4,1.454,6.98a.321.321,0,0,1-.326.4H36.848a.518.518,0,0,1-.486-.4L35.216,19.3a.517.517,0,0,0-.486-.4h-.744a.537.537,0,0,0-.5.4l-1.356,5.941a.538.538,0,0,1-.5.4H29.185a.313.313,0,0,1-.318-.4l3.6-15.751a.539.539,0,0,1,.5-.4h3.912c.225,0,3.053.01,4,.889s1.6,1.285,1.068,4.062A5.159,5.159,0,0,1,38.4,18.251Zm6.534,1.085h-2.62a.314.314,0,0,1-.32-.4l.571-2.535a.536.536,0,0,1,.5-.4h2.621a.314.314,0,0,1,.319.4l-.571,2.535A.539.539,0,0,1,44.937,19.337Zm6.249-3.965a1.99,1.99,0,0,0-.119-.4,1.885,1.885,0,0,0-.115.4L48.7,25.256a.539.539,0,0,1-.5.4H46.035a.313.313,0,0,1-.318-.4L50.854,4.207C50.9,4,55.182,18.518,55.182,18.518a1.915,1.915,0,0,0,.116.4,1.936,1.936,0,0,0,.115-.4l2.064-9.013a.54.54,0,0,1,.5-.4H60.14a.313.313,0,0,1,.318.4L55.774,29.234C55.724,29.454,51.185,15.372,51.185,15.372Zm18.214.735-.456,2a.539.539,0,0,1-.5.4h-3.51a.541.541,0,0,0-.5.4l-.811,3.557a.313.313,0,0,0,.319.4h5.095a.313.313,0,0,1,.318.4l-.457,2a.538.538,0,0,1-.5.4H60.037a.313.313,0,0,1-.318-.4l3.6-15.751a.539.539,0,0,1,.5-.4h8.122a.313.313,0,0,1,.318.4l-.457,2a.538.538,0,0,1-.5.4H66.446a.54.54,0,0,0-.5.4l-.691,3.008a.312.312,0,0,0,.318.4h3.51A.311.311,0,0,1,69.4,16.106Zm12.3,9.125a.32.32,0,0,1-.325.4H78.694a.518.518,0,0,1-.486-.4L77.062,19.3a.516.516,0,0,0-.486-.4h-.743a.538.538,0,0,0-.5.4l-1.355,5.941a.539.539,0,0,1-.5.4H71.032a.313.313,0,0,1-.319-.4l3.6-15.751a.539.539,0,0,1,.5-.4h3.911c.225,0,3.053.01,4,.889s1.6,1.285,1.067,4.062a5.161,5.161,0,0,1-3.548,4.217Zm6.2.424H83.772a.313.313,0,0,1-.318-.4l3.6-15.75a.539.539,0,0,1,.5-.4h3.722c.225,0,6.367-.621,5.068,5.73l-1.089,4.69A6.992,6.992,0,0,1,87.9,25.655Zm20.025-12.542-2.7.72c-.189-1.558-.756-2.223-1.891-2.223a2.175,2.175,0,0,0-2.223,1.81c-.568,2.5,6.693,2.682,5.487,7.862-.638,2.842-3.075,4.722-6.5,4.722-2.65,0-4.4-1.4-4.518-4.653l2.957-.586a.485.485,0,0,1,.536.307s.489,2.355,1.781,2.318a2.523,2.523,0,0,0,2.459-1.971c.709-3.117-6.552-3.163-5.511-7.793.662-2.842,2.814-4.6,6.2-4.631,3.6-.036,4.192,3.626,4.192,3.626A.372.372,0,0,1,107.929,13.113Z" transform="translate(-0.006)" fill="#ff586b"/>
          </g>
        </g>
        <path id="Path_5145" data-name="Path 5145" d="M97.833,45.313l-1.4,6.222,2.525-1.071-.767-3.877a.416.416,0,0,1,0-.282.352.352,0,0,1,.215-.192Z" transform="translate(-63.496 -29.834)" fill="#ff586b"/>
      </g>
      <g id="Group_4109" data-name="Group 4109" transform="translate(0 16.121)">
        <path id="Path_5146" data-name="Path 5146" d="M11.892,81.928,1.817,76.635,0,79.817v8.306Z" transform="translate(0 -66.579)" fill="#ff586b"/>
        <line id="Line_757" data-name="Line 757" y1="13.238" fill="#ff586b"/>
        <line id="Line_758" data-name="Line 758" y1="8.306" transform="translate(0 13.238)" fill="#ff586b"/>
      </g>
    </g>
  </g>
</svg>
