<?xml version="1.0" encoding="utf-8"?>
<!-- Generator: Adobe Illustrator 15.1.0, SVG Export Plug-In . SVG Version: 6.00 Build 0)  -->
<!DOCTYPE svg PUBLIC "-//W3C//DTD SVG 1.1//EN" "http://www.w3.org/Graphics/SVG/1.1/DTD/svg11.dtd">
<svg version="1.1" id="Ebene_1" xmlns="http://www.w3.org/2000/svg" xmlns:xlink="http://www.w3.org/1999/xlink" x="0px" y="0px"
	 width="362px" height="110px" viewBox="0 0 362 110" enable-background="new 0 0 362 110" xml:space="preserve">
<rect x="28.596" y="5.172" fill="#FFFFFF" stroke="#1D1D1B" stroke-miterlimit="10" width="313.483" height="91.496"/>
<g>
	<path fill="#FF586B" d="M156.087,14.3c0.024,0,0.049,0.008,0.071,0.009c0.031-0.003,0.061-0.01,0.089-0.01L156.087,14.3z"/>
	<path fill="#FF586B" d="M167.303,15.776"/>
	<path fill="#FF586B" d="M223.029,45.313l-4.093,18.216l7.394-3.135l-2.244-11.351c0,0-0.164-0.396,0-0.826
		c0.166-0.43,0.627-0.563,0.627-0.563L223.029,45.313z"/>
	<g>
		<g>
			<path fill="#FF586B" d="M108.051,34.243h-3.721c-0.656,0-1.317,0.524-1.467,1.164l-2.574,11.09
				c-0.147,0.639,0.269,1.166,0.928,1.166h2.521c0.656,0,1.715-0.145,2.35-0.32c0,0,6.115-1.693,7.224-6.391
				C114.35,36.255,112.272,34.243,108.051,34.243z"/>
		</g>
		<g>
			<path fill="#FF586B" d="M266.119,34.844h-2.127c-0.659,0-1.315,0.526-1.465,1.168l-6.805,29.738
				c-0.146,0.643,0.271,1.168,0.931,1.168h0.93c5.501,0.162,10.062-2.418,11.721-9.662l2.644-11.582
				C273.117,39.558,273.743,35.071,266.119,34.844z"/>
		</g>
		<g>
			<path fill="#FF586B" d="M230.552,34.243h-3.72c-0.657,0-1.317,0.524-1.467,1.164l-2.574,11.09
				c-0.147,0.639,0.27,1.166,0.927,1.166h2.521c0.658,0,1.717-0.145,2.353-0.32c0,0,6.114-1.693,7.224-6.391
				C236.853,36.255,234.773,34.243,230.552,34.243z"/>
		</g>
		<g>
			<path fill="#FF586B" d="M0.006,0v99.684H362V0H0.006z M66.846,75.105h-8.474c-0.659,0-1.218-0.539-1.327-2.738l-1.645-46.052
				c0.061,0.882,0.496-1.195,1.155-1.195h7.021c0.658,0,1.21,0.539,1.229,1.195l0.923,33.771c0.018,0.656,0.062,1.195,0.1,1.195
				c0.039,0,0.303-0.484,0.587-1.08l15.58-32.462c0.285-0.594,1.058-1.08,1.715-1.08h6.953c0.656,0,0.958,0.484,0.668,1.075
				L68.573,74.029C68.283,74.621,67.505,75.105,66.846,75.105z M112.41,53.43l4.257,20.435c0.134,0.645-0.296,1.174-0.954,1.174
				h-7.852c-0.658,0-1.299-0.531-1.424-1.176l-3.354-17.377c-0.125-0.646-0.766-1.175-1.424-1.175h-2.178
				c-0.658,0-1.315,0.525-1.461,1.167l-3.97,17.393c-0.146,0.643-0.805,1.168-1.464,1.168h-7.158c-0.658,0-1.076-0.525-0.931-1.168
				L95.041,27.76c0.146-0.641,0.807-1.166,1.464-1.166h11.453c0.658,0,8.938,0.028,11.71,2.603c2.772,2.574,4.688,3.763,3.126,11.89
				C121.627,47.17,118.227,51.486,112.41,53.43z M131.539,56.607h-7.67c-0.66,0-1.081-0.527-0.936-1.169l1.672-7.42
				c0.145-0.641,0.801-1.166,1.459-1.166h7.674c0.658,0,1.078,0.525,0.935,1.166l-1.671,7.42
				C132.855,56.08,132.199,56.607,131.539,56.607z M149.832,45c-0.153-0.64-0.312-1.164-0.348-1.164
				c-0.039,0-0.19,0.524-0.336,1.167l-6.601,28.933c-0.146,0.643-0.807,1.168-1.464,1.168h-6.328c-0.658,0-1.076-0.525-0.932-1.168
				l15.039-61.62c0.14-0.613,12.67,41.894,12.67,41.894c0.148,0.643,0.304,1.166,0.341,1.166c0.039,0,0.189-0.524,0.338-1.166
				l6.042-26.384c0.146-0.643,0.809-1.168,1.467-1.168h6.327c0.657,0,1.076,0.525,0.932,1.168l-13.714,57.756
				C163.119,86.225,149.832,45,149.832,45z M203.152,47.151l-1.336,5.852c-0.146,0.641-0.806,1.166-1.464,1.166h-10.274
				c-0.658,0-1.315,0.526-1.465,1.168l-2.375,10.414c-0.146,0.643,0.273,1.168,0.933,1.168h14.914c0.657,0,1.076,0.525,0.932,1.166
				l-1.338,5.854c-0.146,0.643-0.806,1.168-1.463,1.168h-24.47c-0.657,0-1.076-0.525-0.931-1.168l10.544-46.11
				c0.146-0.643,0.807-1.168,1.464-1.168H210.6c0.657,0,1.077,0.525,0.932,1.168l-1.337,5.85c-0.146,0.644-0.806,1.168-1.466,1.168
				h-14.221c-0.657,0-1.317,0.525-1.465,1.168l-2.024,8.805c-0.146,0.641,0.271,1.166,0.93,1.166h10.274
				C202.882,45.983,203.3,46.508,203.152,47.151z M239.169,73.865c0.135,0.645-0.294,1.174-0.951,1.174h-7.854
				c-0.658,0-1.299-0.531-1.424-1.176l-3.355-17.377c-0.122-0.646-0.765-1.175-1.423-1.175h-2.175c-0.658,0-1.317,0.525-1.463,1.167
				l-3.968,17.393c-0.146,0.643-0.808,1.168-1.465,1.168h-7.159c-0.659,0-1.077-0.525-0.933-1.168l10.545-46.111
				c0.147-0.641,0.807-1.166,1.465-1.166h11.45c0.659,0,8.939,0.028,11.712,2.603c2.771,2.575,4.687,3.763,3.125,11.89
				c-1.168,6.083-4.568,10.4-10.386,12.345L239.169,73.865z M257.326,75.105h-12.097c-0.657,0-1.077-0.527-0.931-1.17l10.544-46.109
				c0.146-0.643,0.806-1.168,1.465-1.168h10.896c0.658,0,18.639-1.819,14.835,16.774l-3.188,13.729
				C278.702,57.803,276.779,75.105,257.326,75.105z M315.947,38.389l-7.914,2.107c-0.553-4.562-2.213-6.508-5.537-6.508
				c-3.393,0-5.746,2.013-6.508,5.3c-1.662,7.314,19.593,7.851,16.063,23.015c-1.868,8.32-9.001,13.824-19.038,13.824
				c-7.757,0-12.88-4.094-13.225-13.621l8.656-1.715c0.646-0.127,1.353,0.275,1.568,0.898c0,0,1.432,6.895,5.213,6.785
				c3.321-0.094,6.371-2.146,7.2-5.77c2.076-9.126-19.18-9.26-16.133-22.813c1.939-8.321,8.239-13.454,18.14-13.556
				c10.538-0.105,12.271,10.614,12.271,10.614C316.927,37.573,316.584,38.221,315.947,38.389z"/>
		</g>
	</g>
	<path fill="#FF586B" d="M100.527,45.313l-4.092,18.216l7.393-3.135l-2.244-11.351c0,0-0.164-0.396,0-0.826
		c0.165-0.43,0.629-0.563,0.629-0.563L100.527,45.313z"/>
</g>
<g>
	<polygon fill="#FF586B" points="34.813,92.131 5.319,76.635 0,85.949 0,110.266 	"/>
	<line fill="#FF586B" x1="0" y1="85.949" x2="0" y2="47.195"/>
	<line fill="#FF586B" x1="0" y1="110.266" x2="0" y2="85.949"/>
</g>
</svg>
